<?xml version="1.0" encoding="UTF-8" standalone="no"?>
<svg width="435px" height="332px" viewBox="0 0 435 332" version="1.1" xmlns="http://www.w3.org/2000/svg" xmlns:xlink="http://www.w3.org/1999/xlink">
    <!-- Generator: Sketch 3.7.2 (28276) - http://www.bohemiancoding.com/sketch -->
    <title>artwork</title>
    <desc>Created with Sketch.</desc>
    <defs></defs>
    <g id="Page-1" stroke="none" stroke-width="1" fill="none" fill-rule="evenodd">
        <g id="Exports" transform="translate(-341.000000, -425.000000)">
            <g id="artwork" transform="translate(558.500000, 591.000000) scale(-1, 1) translate(-558.500000, -591.000000) translate(341.000000, 425.000000)">
                <polygon id="Fill-1" fill="#f1f1f1" points="175.335926 7.39623481 20.4306133 98.5409993 20.4306133 118.454201 22.7517461 119.144262 22.7517461 168.142023 20.4306133 171.001982 20.4306133 191.609777 22.7517461 192.635238 22.7517461 241.617136 20.4306133 243.967197 20.4306133 266.476344 175.335926 241.869818"></polygon>
                <polygon id="Stroke-2" stroke="#1D1C1B" points="175.335926 7.39623481 20.4306133 98.5409993 20.4306133 118.454201 22.7517461 119.144262 22.7517461 168.142023 20.4306133 171.001982 20.4306133 191.609777 22.7517461 192.635238 22.7517461 241.617136 20.4306133 243.967197 20.4306133 266.476344 175.335926 241.869818"></polygon>
                <polygon id="Fill-3" fill="#f1f1f1" points="22.751293 119.144375 22.751293 168.142137 175.335473 105.897235 175.335473 37.9108874"></polygon>
                <polygon id="Stroke-4" stroke="#1D1C1B" points="22.751293 119.144375 22.751293 168.142137 175.335473 105.897235 175.335473 37.9108874"></polygon>
                <polygon id="Fill-5" fill="#f1f1f1" points="22.751293 192.634672 22.751293 241.617702 175.335473 207.876078 175.335473 139.88973"></polygon>
                <polygon id="Stroke-6" stroke="#1D1C1B" points="22.751293 192.634672 22.751293 241.617702 175.335473 207.876078 175.335473 139.88973"></polygon>
                <polygon id="Fill-7" fill="#f1f1f1" points="239.629605 72.538714 353.249566 24.8621543 353.249566 328.592298 239.629605 328.592298"></polygon>
                <polygon id="Stroke-8" stroke="#1D1C1B" points="239.629605 72.538714 353.249566 24.8621543 353.249566 328.592298 239.629605 328.592298"></polygon>
                <polygon id="Fill-9" fill="#f1f1f1" points="353.24934 24.8619276 406.867621 69.1199072 406.867621 328.592071 353.24934 328.592071"></polygon>
                <polygon id="Stroke-10" stroke="#1D1C1B" points="353.24934 24.8619276 406.867621 69.1199072 406.867621 328.592071 353.24934 328.592071"></polygon>
                <polygon id="Fill-11" fill="#f1f1f1" points="342.485469 258.571685 303.925664 262.326797 303.925664 328.591958 342.485469 328.591958"></polygon>
                <polygon id="Stroke-12" stroke="#1D1C1B" points="342.485469 258.571685 303.925664 262.326797 303.925664 328.591958 342.485469 328.591958"></polygon>
                <polygon id="Fill-13" fill="#f1f1f1" points="342.485469 176.127133 303.925664 184.339884 303.925664 236.312048 342.485469 231.036307"></polygon>
                <polygon id="Stroke-14" stroke="#1D1C1B" points="342.485469 176.127133 303.925664 184.339884 303.925664 236.312048 342.485469 231.036307"></polygon>
                <polygon id="Fill-15" fill="#f1f1f1" points="342.485469 93.720314 303.925664 106.381638 303.925664 158.353802 342.485469 148.620423"></polygon>
                <polygon id="Stroke-16" stroke="#1D1C1B" points="342.485469 93.720314 303.925664 106.381638 303.925664 158.353802 342.485469 148.620423"></polygon>
                <polygon id="Fill-17" fill="#f1f1f1" points="303.925551 83.0575618 175.335473 7.39668805 175.335473 328.591391 303.925551 328.591391"></polygon>
                <polygon id="Stroke-18" stroke="#1D1C1B" points="303.925551 83.0575618 175.335473 7.39668805 175.335473 328.591391 303.925551 328.591391"></polygon>
                <polygon id="Fill-19" fill="#f1f1f1" points="175.335926 37.9104341 303.926004 106.381752 303.926004 158.353915 175.335926 105.896782"></polygon>
                <polygon id="Stroke-20" stroke="#1D1C1B" points="175.335926 37.9104341 303.926004 106.381752 303.926004 158.353915 175.335926 105.896782"></polygon>
                <polygon id="Fill-21" fill="#f1f1f1" points="175.335926 139.889956 303.926004 184.339431 303.926004 236.312728 175.335926 207.876304"></polygon>
                <polygon id="Stroke-22" stroke="#1D1C1B" points="175.335926 139.889956 303.926004 184.339431 303.926004 236.312728 175.335926 207.876304"></polygon>
                <polygon id="Fill-23" fill="#f1f1f1" points="63.2825313 270.276781 63.2825313 328.592071 220.710617 328.592071 220.710617 249.114897"></polygon>
                <polygon id="Stroke-24" stroke="#1D1C1B" points="63.2825313 270.276781 63.2825313 328.592071 220.710617 328.592071 220.710617 249.114897"></polygon>
                <polygon id="Fill-25" fill="#f1f1f1" points="220.710277 249.115124 303.925551 262.327137 303.925551 328.592298 220.710277 328.592298"></polygon>
                <polygon id="Stroke-26" stroke="#1D1C1B" points="220.710277 249.115124 303.925551 262.327137 303.925551 328.592298 220.710277 328.592298"></polygon>
                <polygon id="Fill-27" fill="#f1f1f1" points="0.56640625 331.433447 434.245547 331.433447 434.245547 328.592751 0.56640625 328.592751"></polygon>
                <polygon id="Stroke-28" stroke="#1D1C1B" points="0.56640625 331.433447 434.245547 331.433447 434.245547 328.591618 0.56640625 328.591618"></polygon>
                <polygon id="Fill-30" fill="#f1f1f1" points="220.710277 249.115124 63.2821914 270.277008 20.4301602 266.476571 175.207465 241.889308"></polygon>
                <polygon id="Stroke-31" stroke="#1D1C1B" points="220.710277 249.115124 63.2821914 270.277008 20.4301602 266.476571 175.207465 241.889308"></polygon>
                <polygon id="Fill-32" fill="#f1f1f1" points="20.4303867 266.476797 20.4303867 264.751077 175.335699 236.821152 303.925777 258.934845 342.321324 256.878258 342.485582 258.571118 303.925777 262.327364 175.335699 241.869139"></polygon>
                <polygon id="Stroke-33" stroke="#1D1C1B" points="20.4303867 266.476797 20.4303867 264.751077 175.335699 236.821152 303.925777 258.934845 342.321324 256.878258 342.485582 258.571118 303.925777 262.327364 175.335699 241.869139"></polygon>
                <g id="Group-130" transform="translate(20.390625, 0.000000)">
                    <path d="M132.556734,252.662651 C137.482203,253.319853 143.300328,253.5816 145.646383,253.251866 C148.011695,252.919866 146.011148,252.105163 141.081148,251.4253 C136.061656,250.732972 129.996578,250.454228 127.635797,250.807757 C125.297672,251.157887 127.545172,251.991853 132.556734,252.662651" id="Fill-34" fill="#f1f1f1"></path>
                    <path d="M132.556734,252.662651 C137.482203,253.319853 143.300328,253.5816 145.646383,253.251866 C148.011695,252.919866 146.011148,252.105163 141.081148,251.4253 C136.061656,250.732972 129.996578,250.454228 127.635797,250.807757 C125.297672,251.157887 127.545172,251.991853 132.556734,252.662651 L132.556734,252.662651 Z" id="Stroke-36" stroke="#1D1C1B"></path>
                    <path d="M90.3151758,258.571685 C94.0206055,259.003398 98.3536133,259.154101 100.046035,258.910483 C101.749785,258.666866 100.160449,258.116176 96.445957,257.673132 C92.6872852,257.226688 88.2217383,257.06692 86.5293164,257.320736 C84.845957,257.575685 86.5644336,258.135439 90.3151758,258.571685" id="Fill-38" fill="#f1f1f1"></path>
                    <path d="M90.3151758,258.571685 C94.0206055,259.003398 98.3536133,259.154101 100.046035,258.910483 C101.749785,258.666866 100.160449,258.116176 96.445957,257.673132 C92.6872852,257.226688 88.2217383,257.06692 86.5293164,257.320736 C84.845957,257.575685 86.5644336,258.135439 90.3151758,258.571685 L90.3151758,258.571685 Z" id="Stroke-40" stroke="#1D1C1B"></path>
                    <path d="M50.5251367,264.628928 C53.8193555,264.951863 57.4398242,265.076505 58.6428711,264.905406 C59.8527148,264.733174 58.1852148,264.327522 54.879668,263.997788 C51.5390039,263.663522 47.8279102,263.535481 46.6271289,263.712246 C45.4342773,263.890143 47.1958008,264.301461 50.5251367,264.628928" id="Fill-42" fill="#f1f1f1"></path>
                    <path d="M50.5251367,264.628928 C53.8193555,264.951863 57.4398242,265.076505 58.6428711,264.905406 C59.8527148,264.733174 58.1852148,264.327522 54.879668,263.997788 C51.5390039,263.663522 47.8279102,263.535481 46.6271289,263.712246 C45.4342773,263.890143 47.1958008,264.301461 50.5251367,264.628928 L50.5251367,264.628928 Z" id="Stroke-44" stroke="#1D1C1B"></path>
                    <polygon id="Fill-46" fill="#f1f1f1" points="2.36066797 119.144375 0.0395351563 118.454314 154.944848 31.6493447 283.534926 103.329618 321.565707 92.1050717 322.09473 93.7208805 283.534926 106.381072 154.944848 37.9108874"></polygon>
                    <polygon id="Stroke-48" stroke="#1D1C1B" points="2.36066797 119.144375 0.0395351563 118.454314 154.944848 31.6493447 283.534926 103.329618 321.565707 92.1050717 322.09473 93.7208805 283.534926 106.381072 154.944848 37.9108874"></polygon>
                    <polygon id="Fill-50" fill="#f1f1f1" points="2.36066797 192.634672 0.0395351563 191.610344 154.944848 134.686508 283.534926 181.542699 321.741293 174.46532 322.09473 176.127586 283.534926 184.340337 154.944848 139.88973"></polygon>
                    <polygon id="Stroke-52" stroke="#1D1C1B" points="2.36066797 192.634672 0.0395351563 191.610344 154.944848 134.686508 283.534926 181.542699 321.741293 174.46532 322.09473 176.127586 283.534926 184.340337 154.944848 139.88973"></polygon>
                    <polygon id="Fill-54" fill="#f1f1f1" points="0.0397617187 171.001642 2.36089453 168.141683 154.945074 105.896782 283.535152 158.353915 322.094957 148.620537 322.094957 152.210216 283.535152 161.943595 154.945074 111.172523"></polygon>
                    <polygon id="Stroke-56" stroke="#1D1C1B" points="0.0397617187 171.001642 2.36089453 168.141683 154.945074 105.896782 283.535152 158.353915 322.094957 148.620537 322.094957 152.210216 283.535152 161.943595 154.945074 111.172523"></polygon>
                    <polygon id="Fill-58" fill="#f1f1f1" points="0.0397617187 243.967424 2.36089453 241.617362 154.945074 207.875738 283.535152 236.312161 322.094957 231.03642 322.094957 234.535451 283.535152 239.883711 154.945074 213.059697"></polygon>
                    <polygon id="Stroke-60" stroke="#1D1C1B" points="0.0397617187 243.967424 2.36089453 241.617362 154.945074 207.875738 283.535152 236.312161 322.094957 231.03642 322.094957 234.535451 283.535152 239.883711 154.945074 213.059697"></polygon>
                    <polygon id="Fill-62" fill="#f1f1f1" points="121.606969 328.591844 42.8923594 328.591844 42.8923594 270.276554 121.606969 259.695612"></polygon>
                    <polygon id="Stroke-64" stroke="#1D1C1B" points="121.606969 328.591844 42.8923594 328.591844 42.8923594 270.276554 121.606969 259.695612"></polygon>
                    <polygon id="Fill-66" fill="#f1f1f1" points="156.551516 268.566018 133.532766 271.097376 133.532766 328.592298 156.551516 328.592298"></polygon>
                    <polygon id="Stroke-68" stroke="#1D1C1B" points="156.551516 268.566018 133.532766 271.097376 133.532766 328.592298 156.551516 328.592298"></polygon>
                    <polygon id="Fill-70" fill="#f1f1f1" points="183.893871 265.396834 158.595902 268.143483 158.595902 328.591278 183.893871 328.591278"></polygon>
                    <polygon id="Stroke-72" stroke="#1D1C1B" points="183.893871 265.396834 158.595902 268.143483 158.595902 328.591278 183.893871 328.591278"></polygon>
                    <polygon id="Fill-74" fill="#f1f1f1" points="91.7467109 44.6559263 96.4660078 41.8050321 96.4660078 28.781114 91.7467109 31.6965952"></polygon>
                    <polygon id="Stroke-76" stroke="#1D1C1B" points="91.7467109 44.6559263 96.4660078 41.8050321 96.4660078 28.781114 91.7467109 31.6965952"></polygon>
                    <polygon id="Fill-78" fill="#f1f1f1" points="56.2534297 65.465641 60.5943672 62.9116205 60.5943672 50.9414908 56.2534297 53.6235522"></polygon>
                    <polygon id="Stroke-80" stroke="#1D1C1B" points="56.2534297 65.465641 60.5943672 62.9116205 60.5943672 50.9414908 56.2534297 53.6235522"></polygon>
                    <polygon id="Fill-82" fill="#f1f1f1" points="45.6797578 60.1542075 99.4260469 26.9530744 99.4260469 0.972091468 45.6797578 36.9051427"></polygon>
                    <polygon id="Stroke-84" stroke="#1D1C1B" points="45.6797578 60.1542075 99.4260469 26.9530744 99.4260469 0.972091468 45.6797578 36.9051427"></polygon>
                    <polygon id="Fill-86" fill="#f1f1f1" points="104.869211 29.9078744 99.4260469 26.9538676 99.4260469 0.974017747 104.869211 4.17617474"></polygon>
                    <polygon id="Stroke-88" stroke="#1D1C1B" points="104.869211 29.9078744 99.4260469 26.9538676 99.4260469 0.974017747 104.869211 4.17617474"></polygon>
                    <polygon id="Fill-90" fill="#f1f1f1" points="50.9898164 62.4447809 45.6803242 60.1547741 99.4266133 26.953641 104.869777 29.9076478"></polygon>
                    <polygon id="Stroke-92" stroke="#1D1C1B" points="50.9898164 62.4447809 45.6803242 60.1547741 99.4266133 26.953641 104.869777 29.9076478"></polygon>
                    <polygon id="Fill-94" fill="#f1f1f1" points="153.491676 135.222467 154.945074 134.686508 156.637496 135.310849 158.436402 112.576214 154.945074 111.172296 151.159215 112.635136"></polygon>
                    <polygon id="Stroke-96" stroke="#1D1C1B" points="153.491676 135.222467 154.945074 134.686508 156.637496 135.310849 158.436402 112.576214 154.945074 111.172296 151.159215 112.635136"></polygon>
                    <polygon id="Fill-98" fill="#f1f1f1" points="153.416457 237.095817 154.945754 236.821605 156.748059 237.130943 158.437082 213.787831 154.945754 213.059244 151.159895 213.813892"></polygon>
                    <polygon id="Stroke-100" stroke="#1D1C1B" points="153.416457 237.095817 154.945754 236.821605 156.748059 237.130943 158.437082 213.787831 154.945754 213.059244 151.159895 213.813892"></polygon>
                    <polygon id="Fill-102" fill="#f1f1f1" points="153.593402 32.4086389 154.944848 31.649458 156.418637 32.4732259 158.436176 9.44964915 154.944848 7.39646143 151.533949 9.40545802"></polygon>
                    <polygon id="Stroke-104" stroke="#1D1C1B" points="153.593402 32.4086389 154.944848 31.649458 156.418637 32.4732259 158.436176 9.44964915 154.944848 7.39646143 151.533949 9.40545802"></polygon>
                    <polygon id="Fill-106" fill="#f1f1f1" points="330.971449 328.591844 334.841137 328.591844 335.619379 27.1392437 332.858715 24.861701 329.139691 26.4197215"></polygon>
                    <polygon id="Stroke-108" stroke="#1D1C1B" points="330.971449 328.591844 334.841137 328.591844 335.619379 27.1392437 332.858715 24.861701 329.139691 26.4197215"></polygon>
                    <polygon id="Fill-110" fill="#f1f1f1" points="198.713437 328.591844 201.954414 328.591844 201.954414 249.374152 200.319766 249.11467 198.427969 249.369619"></polygon>
                    <polygon id="Stroke-112" stroke="#1D1C1B" points="198.713437 328.591844 201.954414 328.591844 201.954414 249.374152 200.319766 249.11467 198.427969 249.369619"></polygon>
                    <path d="M160.045109,306.257309 C160.045109,305.500395 159.288391,304.931575 158.527141,304.931575 C157.770422,304.931575 157.199484,305.500395 157.199484,306.257309 C157.199484,307.018756 157.770422,307.775671 158.527141,307.775671 C159.288391,307.775671 160.045109,307.018756 160.045109,306.257309" id="Fill-114" fill="#f1f1f1"></path>
                    <path d="M160.045109,306.257309 C160.045109,305.500395 159.288391,304.931575 158.527141,304.931575 C157.770422,304.931575 157.199484,305.500395 157.199484,306.257309 C157.199484,307.018756 157.770422,307.775671 158.527141,307.775671 C159.288391,307.775671 160.045109,307.018756 160.045109,306.257309 L160.045109,306.257309 Z" id="Stroke-116" stroke="#1D1C1B"></path>
                    <path d="M159.476551,306.257309 C159.476551,305.878852 159.098191,305.310033 158.527254,305.310033 C157.960848,305.310033 157.582488,305.878852 157.582488,306.257309 C157.582488,306.826128 157.960848,307.206852 158.527254,307.206852 C159.098191,307.206852 159.476551,306.826128 159.476551,306.257309" id="Fill-118" fill="#f1f1f1"></path>
                    <path d="M159.476551,306.257309 C159.476551,305.878852 159.098191,305.310033 158.527254,305.310033 C157.960848,305.310033 157.582488,305.878852 157.582488,306.257309 C157.582488,306.826128 157.960848,307.206852 158.527254,307.206852 C159.098191,307.206852 159.476551,306.826128 159.476551,306.257309 L159.476551,306.257309 Z" id="Stroke-120" stroke="#1D1C1B"></path>
                    <path d="M157.507383,306.409939 C157.507383,305.653024 156.750664,305.084205 155.99168,305.084205 C155.234961,305.084205 154.661758,305.653024 154.661758,306.409939 C154.661758,307.171386 155.234961,307.9283 155.99168,307.9283 C156.750664,307.9283 157.507383,307.171386 157.507383,306.409939" id="Fill-122" fill="#f1f1f1"></path>
                    <path d="M157.507383,306.409939 C157.507383,305.653024 156.750664,305.084205 155.99168,305.084205 C155.234961,305.084205 154.661758,305.653024 154.661758,306.409939 C154.661758,307.171386 155.234961,307.9283 155.99168,307.9283 C156.750664,307.9283 157.507383,307.171386 157.507383,306.409939 L157.507383,306.409939 Z" id="Stroke-124" stroke="#1D1C1B"></path>
                    <path d="M156.940977,306.409939 C156.940977,306.031481 156.562617,305.462662 155.99168,305.462662 C155.423008,305.462662 155.044648,306.031481 155.044648,306.409939 C155.044648,306.978758 155.423008,307.359481 155.99168,307.359481 C156.562617,307.359481 156.940977,306.978758 156.940977,306.409939" id="Fill-126" fill="#f1f1f1"></path>
                    <path d="M156.940977,306.409939 C156.940977,306.031481 156.562617,305.462662 155.99168,305.462662 C155.423008,305.462662 155.044648,306.031481 155.044648,306.409939 C155.044648,306.978758 155.423008,307.359481 155.99168,307.359481 C156.562617,307.359481 156.940977,306.978758 156.940977,306.409939 L156.940977,306.409939 Z" id="Stroke-128" stroke="#1D1C1B"></path>
                </g>
                <path d="M188.002582,44.6536601 L188.002582,111.063858 L219.508363,123.91781 L219.508363,61.4315577 L188.002582,44.6536601 Z M231.255629,128.709715 L257.066762,139.239667 L257.066762,81.4308751 L231.255629,67.6851686 L231.255629,128.709715 Z M266.447582,143.066165 L289.393832,152.426752 L289.393832,98.6438853 L266.447582,86.4278717 L266.447582,143.066165 Z M188.002582,210.676322 L219.508363,217.644923 L219.508363,155.157537 L188.002582,144.269524 L188.002582,210.676322 Z M231.255629,220.240868 L257.066762,225.950588 L257.066762,168.141797 L231.255629,159.218588 L231.255629,220.240868 Z M266.447582,228.024172 L289.393832,233.097087 L289.393832,179.316486 L266.447582,171.384745 L266.447582,228.024172 Z" id="Fill-131" fill="#f1f1f1"></path>
                <path d="M188.002582,44.6536601 L188.002582,111.063858 L219.508363,123.91781 L219.508363,61.4315577 L188.002582,44.6536601 L188.002582,44.6536601 Z M231.255629,128.709715 L257.066762,139.239667 L257.066762,81.4308751 L231.255629,67.6851686 L231.255629,128.709715 L231.255629,128.709715 Z M266.447582,143.066165 L289.393832,152.426752 L289.393832,98.6438853 L266.447582,86.4278717 L266.447582,143.066165 L266.447582,143.066165 Z M188.002582,210.676322 L219.508363,217.644923 L219.508363,155.157537 L188.002582,144.269524 L188.002582,210.676322 L188.002582,210.676322 Z M231.255629,220.240868 L257.066762,225.950588 L257.066762,168.141797 L231.255629,159.218588 L231.255629,220.240868 L231.255629,220.240868 Z M266.447582,228.024172 L289.393832,233.097087 L289.393832,179.316486 L266.447582,171.384745 L266.447582,228.024172 L266.447582,228.024172 Z" id="Stroke-132" stroke="#1D1C1B"></path>
                <path d="M131.162809,61.4312177 L131.162809,123.916337 L162.670855,111.062385 L162.670855,44.6555863 L131.162809,61.4312177 Z M93.6032773,81.4305352 L93.6032773,139.239327 L120.568746,128.238003 L120.568746,67.0729515 L93.6032773,81.4305352 Z M61.2784727,98.6446785 L61.2784727,152.425279 L84.2213242,143.065825 L84.2213242,86.4263986 L61.2784727,98.6446785 Z M28.6591367,116.01519 L28.6591367,165.732474 L52.2306992,156.116938 L52.2306992,103.462644 L28.6591367,116.01519 Z M131.162809,155.160597 L131.162809,217.644583 L162.670855,210.675982 L162.670855,144.269184 L131.162809,155.160597 Z M93.605543,168.14259 L93.605543,225.950248 L120.568746,219.986713 L120.568746,158.820528 L93.605543,168.14259 Z M61.2784727,179.316146 L61.2784727,233.099013 L84.2213242,228.023832 L84.2213242,171.384405 L61.2784727,179.316146 Z M28.6591367,190.593948 L28.6591367,240.311231 L52.2306992,235.097812 L52.2306992,182.445784 L28.6591367,190.593948 Z" id="Fill-133" fill="#f1f1f1"></path>
                <path d="M131.162809,61.4312177 L131.162809,123.916337 L162.670855,111.062385 L162.670855,44.6555863 L131.162809,61.4312177 L131.162809,61.4312177 Z M93.6032773,81.4305352 L93.6032773,139.239327 L120.568746,128.238003 L120.568746,67.0729515 L93.6032773,81.4305352 L93.6032773,81.4305352 Z M61.2784727,98.6446785 L61.2784727,152.425279 L84.2213242,143.065825 L84.2213242,86.4263986 L61.2784727,98.6446785 L61.2784727,98.6446785 Z M28.6591367,116.01519 L28.6591367,165.732474 L52.2306992,156.116938 L52.2306992,103.462644 L28.6591367,116.01519 L28.6591367,116.01519 Z M131.162809,155.160597 L131.162809,217.644583 L162.670855,210.675982 L162.670855,144.269184 L131.162809,155.160597 L131.162809,155.160597 Z M93.605543,168.14259 L93.605543,225.950248 L120.568746,219.986713 L120.568746,158.820528 L93.605543,168.14259 L93.605543,168.14259 Z M61.2784727,179.316146 L61.2784727,233.099013 L84.2213242,228.023832 L84.2213242,171.384405 L61.2784727,179.316146 L61.2784727,179.316146 Z M28.6591367,190.593948 L28.6591367,240.311231 L52.2306992,235.097812 L52.2306992,182.445784 L28.6591367,190.593948 L28.6591367,190.593948 Z" id="Stroke-134" stroke="#1D1C1B"></path>
                <path d="M342.487621,93.693686 L316.915512,102.117195 L316.915512,155.076294 L342.487621,148.62099 L342.487621,93.693686 Z M316.915512,181.593235 L316.915512,234.535338 L342.487621,231.036307 L342.487621,176.129399 L316.915512,181.593235 Z M316.915512,261.081741 L316.915512,328.592184 L342.487621,328.592184 L342.487621,258.571911 L316.915512,261.081741 Z" id="Fill-135" fill="#f1f1f1"></path>
                <path d="M342.487621,93.693686 L316.915512,102.117195 L316.915512,155.076294 L342.487621,148.62099 L342.487621,93.693686 L342.487621,93.693686 Z M316.915512,181.593235 L316.915512,234.535338 L342.487621,231.036307 L342.487621,176.129399 L316.915512,181.593235 L316.915512,181.593235 Z M316.915512,261.081741 L316.915512,328.592184 L342.487621,328.592184 L342.487621,258.571911 L316.915512,261.081741 L316.915512,261.081741 Z" id="Stroke-136" stroke="#1D1C1B"></path>
                <path d="M131.165074,261.152106 L103.466676,264.874359 L103.466676,328.592298 L131.165074,328.592298 L131.165074,261.152106 Z M70.6083164,269.292339 L70.6083164,328.592298 L93.605543,328.592298 L93.605543,266.200093 L70.6083164,269.292339 Z" id="Fill-137" fill="#f1f1f1"></path>
                <path d="M131.165074,261.152106 L103.466676,264.874359 L103.466676,328.592298 L131.165074,328.592298 L131.165074,261.152106 L131.165074,261.152106 Z M70.6083164,269.292339 L70.6083164,328.592298 L93.605543,328.592298 L93.605543,266.200093 L70.6083164,269.292339 L70.6083164,269.292339 Z" id="Stroke-138" stroke="#1D1C1B"></path>
                <g id="Group-203" transform="translate(286.601562, 142.771331)">
                    <path d="M11.1633008,157.357915 C10.5946289,155.797629 10.2513867,154.126298 10.2004102,152.369984 C9.96025391,143.798038 16.550957,136.658339 24.9179102,136.423786 C26.8527539,136.371663 28.7037695,136.70253 30.4256445,137.33367 C30.9104883,129.41326 37.2157227,123.044072 45.1148242,122.821984 C53.484043,122.587431 60.4599023,129.344141 60.6989258,137.916086 C60.7986133,141.445711 59.7258398,144.723786 57.8634961,147.385451 C65.0931055,148.385984 70.7707617,154.613533 70.9871289,162.326584 C71.2261523,170.89513 64.6422461,178.037096 56.2696289,178.271649 C50.4594336,178.435949 45.3198633,175.217929 42.6407617,170.368236 C42.3111133,170.399963 41.9837305,170.439622 41.6472852,170.448687 C40.6141602,170.477014 39.6025586,170.397697 38.6204102,170.224332 C36.5847461,176.077956 31.2174805,180.345233 24.7831055,180.52653 C16.4138867,180.761083 9.43576172,174.002106 9.19447266,165.431294 C9.11177734,162.49655 9.84697266,159.737438 11.1633008,157.357915" id="Fill-139" fill="#f1f1f1"></path>
                    <path d="M11.1633008,157.357915 C10.5946289,155.797629 10.2513867,154.126298 10.2004102,152.369984 C9.96025391,143.798038 16.550957,136.658339 24.9179102,136.423786 C26.8527539,136.371663 28.7037695,136.70253 30.4256445,137.33367 C30.9104883,129.41326 37.2157227,123.044072 45.1148242,122.821984 C53.484043,122.587431 60.4599023,129.344141 60.6989258,137.916086 C60.7986133,141.445711 59.7258398,144.723786 57.8634961,147.385451 C65.0931055,148.385984 70.7707617,154.613533 70.9871289,162.326584 C71.2261523,170.89513 64.6422461,178.037096 56.2696289,178.271649 C50.4594336,178.435949 45.3198633,175.217929 42.6407617,170.368236 C42.3111133,170.399963 41.9837305,170.439622 41.6472852,170.448687 C40.6141602,170.477014 39.6025586,170.397697 38.6204102,170.224332 C36.5847461,176.077956 31.2174805,180.345233 24.7831055,180.52653 C16.4138867,180.761083 9.43576172,174.002106 9.19447266,165.431294 C9.11177734,162.49655 9.84697266,159.737438 11.1633008,157.357915 L11.1633008,157.357915 Z" id="Stroke-141" stroke="#1D1C1B"></path>
                    <path d="M24.5091914,143.437484 C25.7394258,143.437484 26.8835664,143.787614 27.8634492,144.387027 C28.1138008,143.609716 28.462707,142.855068 28.933957,142.14461 C31.779582,137.843341 37.6554805,136.718167 42.0609883,139.631382 C43.8734883,140.830208 45.1456367,142.532132 45.826457,144.415354 C48.8907148,141.122549 54.0393477,140.467614 58.0041914,143.087354 C62.4074336,146.002835 63.6727852,151.851928 60.828293,156.156597 C58.8504023,159.143463 55.4111836,160.596105 52.019543,160.230112 C51.9175898,160.405743 51.820168,160.584774 51.7080195,160.757006 C51.3557148,161.288433 50.9580977,161.771136 50.5219648,162.203982 C52.750207,165.303027 53.0016914,169.52158 50.8142305,172.829115 C47.9686055,177.131518 42.092707,178.257825 37.6894648,175.343477 C36.178293,174.345211 35.0477461,173.000214 34.3148164,171.490917 C33.3281367,171.224638 32.3618477,170.806522 31.4589961,170.211641 C27.0557539,167.297293 25.7949336,161.448201 28.638293,157.143532 C29.2953242,156.149798 30.1200117,155.335095 31.0455195,154.689225 C30.6116523,154.341361 30.2174336,153.960638 29.8571992,153.558385 C28.692668,155.268242 26.7329023,156.395682 24.5091914,156.395682 C20.940832,156.395682 18.0464961,153.496064 18.0464961,149.917716 C18.0464961,146.339368 20.940832,143.437484 24.5091914,143.437484" id="Fill-143" fill="#f1f1f1"></path>
                    <path d="M24.5091914,143.437484 C25.7394258,143.437484 26.8835664,143.787614 27.8634492,144.387027 C28.1138008,143.609716 28.462707,142.855068 28.933957,142.14461 C31.779582,137.843341 37.6554805,136.718167 42.0609883,139.631382 C43.8734883,140.830208 45.1456367,142.532132 45.826457,144.415354 C48.8907148,141.122549 54.0393477,140.467614 58.0041914,143.087354 C62.4074336,146.002835 63.6727852,151.851928 60.828293,156.156597 C58.8504023,159.143463 55.4111836,160.596105 52.019543,160.230112 C51.9175898,160.405743 51.820168,160.584774 51.7080195,160.757006 C51.3557148,161.288433 50.9580977,161.771136 50.5219648,162.203982 C52.750207,165.303027 53.0016914,169.52158 50.8142305,172.829115 C47.9686055,177.131518 42.092707,178.257825 37.6894648,175.343477 C36.178293,174.345211 35.0477461,173.000214 34.3148164,171.490917 C33.3281367,171.224638 32.3618477,170.806522 31.4589961,170.211641 C27.0557539,167.297293 25.7949336,161.448201 28.638293,157.143532 C29.2953242,156.149798 30.1200117,155.335095 31.0455195,154.689225 C30.6116523,154.341361 30.2174336,153.960638 29.8571992,153.558385 C28.692668,155.268242 26.7329023,156.395682 24.5091914,156.395682 C20.940832,156.395682 18.0464961,153.496064 18.0464961,149.917716 C18.0464961,146.339368 20.940832,143.437484 24.5091914,143.437484 L24.5091914,143.437484 Z" id="Stroke-145" stroke="#1D1C1B"></path>
                    <path d="M24.1684414,173.438273 C20.4154336,169.76701 20.3893789,163.70716 24.1084023,159.90559 C27.0559805,156.892662 31.4626211,156.211666 35.0366445,157.876198 C35.480707,156.950451 36.0765664,156.072294 36.8355508,155.294983 C40.5545742,151.493413 46.6117227,151.389167 50.3647305,155.06043 C54.1154727,158.73056 54.143793,164.789276 50.4247695,168.59198 C49.745082,169.286573 48.9883633,169.853126 48.1829336,170.301836 C48.5862148,173.157263 47.7048867,176.175857 45.5151602,178.416007 C41.7961367,182.217577 35.7423867,182.321823 31.9893789,178.65056 C31.2111367,177.889113 30.6028164,177.02342 30.1417617,176.098805 C27.9667617,175.954901 25.8393398,175.073345 24.1684414,173.438273" id="Fill-147" fill="#f1f1f1"></path>
                    <path d="M24.1684414,173.438273 C20.4154336,169.76701 20.3893789,163.70716 24.1084023,159.90559 C27.0559805,156.892662 31.4626211,156.211666 35.0366445,157.876198 C35.480707,156.950451 36.0765664,156.072294 36.8355508,155.294983 C40.5545742,151.493413 46.6117227,151.389167 50.3647305,155.06043 C54.1154727,158.73056 54.143793,164.789276 50.4247695,168.59198 C49.745082,169.286573 48.9883633,169.853126 48.1829336,170.301836 C48.5862148,173.157263 47.7048867,176.175857 45.5151602,178.416007 C41.7961367,182.217577 35.7423867,182.321823 31.9893789,178.65056 C31.2111367,177.889113 30.6028164,177.02342 30.1417617,176.098805 C27.9667617,175.954901 25.8393398,175.073345 24.1684414,173.438273 L24.1684414,173.438273 Z" id="Stroke-149" stroke="#1D1C1B"></path>
                    <path d="M7.41085938,172.893816 C5.57910156,172.845092 3.83117188,171.807167 2.9634375,170.045188 C1.71621094,167.516096 2.75386719,164.455577 5.27550781,163.213693 C7.80054688,161.967276 10.8580078,163.009734 12.1029688,165.539959 C12.1528125,165.641939 12.1947266,165.747317 12.2366406,165.849297 C12.7033594,165.212491 13.3252734,164.674266 14.0819922,164.300341 C16.6036328,163.056191 19.6610938,164.098648 20.9094531,166.628874 C22.1555469,169.157966 21.1178906,172.216218 18.5951172,173.460369 C17.8361328,173.834294 17.0307031,173.998594 16.2388672,173.980464 C17.2482031,176.44157 16.2014844,179.293597 13.7851953,180.484491 C11.2624219,181.728642 8.20496094,180.686184 6.95773438,178.157092 C6.09226563,176.395113 6.33355469,174.377051 7.41085938,172.893816" id="Fill-151" fill="#f1f1f1"></path>
                    <path d="M7.41085938,172.893816 C5.57910156,172.845092 3.83117188,171.807167 2.9634375,170.045188 C1.71621094,167.516096 2.75386719,164.455577 5.27550781,163.213693 C7.80054688,161.967276 10.8580078,163.009734 12.1029688,165.539959 C12.1528125,165.641939 12.1947266,165.747317 12.2366406,165.849297 C12.7033594,165.212491 13.3252734,164.674266 14.0819922,164.300341 C16.6036328,163.056191 19.6610938,164.098648 20.9094531,166.628874 C22.1555469,169.157966 21.1178906,172.216218 18.5951172,173.460369 C17.8361328,173.834294 17.0307031,173.998594 16.2388672,173.980464 C17.2482031,176.44157 16.2014844,179.293597 13.7851953,180.484491 C11.2624219,181.728642 8.20496094,180.686184 6.95773438,178.157092 C6.09226563,176.395113 6.33355469,174.377051 7.41085938,172.893816 L7.41085938,172.893816 Z" id="Stroke-153" stroke="#1D1C1B"></path>
                    <path d="M37.5697266,182.361481 C37.4813672,183.724608 37.4439844,184.797659 37.4371875,185.820853 L47.0479688,185.820853 C54.7431641,178.895311 63.1248438,167.89172 63.1248438,167.89172 C61.1639453,170.448007 52.8581641,176.65856 51.1985938,178.627898 C50.4350781,178.105536 52.0595313,172.475133 52.1705469,168.244116 C52.1705469,168.244116 48.4028125,176.092007 49.5752734,180.088471 C47.8737891,181.549044 44.7914063,183.740471 42.7693359,184.866778 C42.3354688,178.388812 41.9899609,173.91871 41.7180859,170.833263 C41.6501172,170.061618 48.1150781,156.377099 47.7831641,156.873399 C45.1210547,160.850601 43.8998828,161.564457 41.6557813,166.261181 C40.9421094,167.761413 39.2338281,154.24686 39.2338281,154.24686 C38.3173828,155.113686 39.3573047,164.350765 39.0117969,166.407352 C38.7931641,167.712689 38.6844141,169.286573 38.5915234,170.959038 C38.4884375,172.843392 38.2494141,177.331625 38.0568359,179.222778 C36.3621484,178.751406 33.0826563,174.248444 28.9898047,165.457809 C28.9898047,165.457809 32.1424219,180.494123 37.5697266,182.361481" id="Fill-155" fill="#f1f1f1"></path>
                    <path d="M37.5697266,182.361481 C37.4813672,183.724608 37.4439844,184.797659 37.4371875,185.820853 L47.0479688,185.820853 C54.7431641,178.895311 63.1248438,167.89172 63.1248438,167.89172 C61.1639453,170.448007 52.8581641,176.65856 51.1985938,178.627898 C50.4350781,178.105536 52.0595313,172.475133 52.1705469,168.244116 C52.1705469,168.244116 48.4028125,176.092007 49.5752734,180.088471 C47.8737891,181.549044 44.7914063,183.740471 42.7693359,184.866778 C42.3354688,178.388812 41.9899609,173.91871 41.7180859,170.833263 C41.6501172,170.061618 48.1150781,156.377099 47.7831641,156.873399 C45.1210547,160.850601 43.8998828,161.564457 41.6557813,166.261181 C40.9421094,167.761413 39.2338281,154.24686 39.2338281,154.24686 C38.3173828,155.113686 39.3573047,164.350765 39.0117969,166.407352 C38.7931641,167.712689 38.6844141,169.286573 38.5915234,170.959038 C38.4884375,172.843392 38.2494141,177.331625 38.0568359,179.222778 C36.3621484,178.751406 33.0826563,174.248444 28.9898047,165.457809 C28.9898047,165.457809 32.1424219,180.494123 37.5697266,182.361481 L37.5697266,182.361481 Z" id="Stroke-157" stroke="#1D1C1B"></path>
                    <path d="M36.3417578,185.820513 L40.6645703,185.820513 C35.7662891,183.098793 19.9862109,178.329551 14.2360547,172.701414 C14.2360547,172.701414 16.4948828,179.497783 36.3417578,185.820513" id="Fill-159" fill="#f1f1f1"></path>
                    <path d="M36.3417578,185.820513 L40.6645703,185.820513 C35.7662891,183.098793 19.9862109,178.329551 14.2360547,172.701414 C14.2360547,172.701414 16.4948828,179.497783 36.3417578,185.820513 L36.3417578,185.820513 Z" id="Stroke-161" stroke="#1D1C1B"></path>
                    <path d="M67.3613359,159.334165 C67.6241484,159.577783 67.856375,159.838397 68.0784062,160.10921 C71.1313359,157.195995 75.903875,157.07022 78.9658672,159.914315 C82.1479375,162.875121 82.2736797,167.914042 79.2445391,171.173988 C77.5079375,173.044745 75.1143047,173.916104 72.7841094,173.767667 C73.3992266,175.704145 72.9653594,177.932964 71.4587188,179.555571 C69.2531328,181.931694 65.5850859,182.109592 63.2616875,179.953291 C61.3789531,178.200377 60.9666094,175.44353 62.0643047,173.198848 C60.0309062,173.294029 57.9827812,172.615298 56.3934453,171.138861 C53.2102422,168.180322 53.0856328,163.138001 56.1125078,159.878056 C59.1416484,156.619244 64.177,156.375626 67.3613359,159.334165" id="Fill-163" fill="#f1f1f1"></path>
                    <path d="M67.3613359,159.334165 C67.6241484,159.577783 67.856375,159.838397 68.0784062,160.10921 C71.1313359,157.195995 75.903875,157.07022 78.9658672,159.914315 C82.1479375,162.875121 82.2736797,167.914042 79.2445391,171.173988 C77.5079375,173.044745 75.1143047,173.916104 72.7841094,173.767667 C73.3992266,175.704145 72.9653594,177.932964 71.4587188,179.555571 C69.2531328,181.931694 65.5850859,182.109592 63.2616875,179.953291 C61.3789531,178.200377 60.9666094,175.44353 62.0643047,173.198848 C60.0309062,173.294029 57.9827812,172.615298 56.3934453,171.138861 C53.2102422,168.180322 53.0856328,163.138001 56.1125078,159.878056 C59.1416484,156.619244 64.177,156.375626 67.3613359,159.334165 L67.3613359,159.334165 Z" id="Stroke-165" stroke="#1D1C1B"></path>
                    <path d="M47.988543,156.481458 C46.1567852,156.432734 44.4088555,155.39481 43.5388555,153.63283 C42.2938945,151.103738 43.3315508,148.043219 45.8531914,146.799069 C48.3759648,145.554919 51.4334258,146.597376 52.6806523,149.127601 C52.7293633,149.229581 52.7724102,149.332694 52.8143242,149.436939 C53.281043,148.800134 53.902957,148.261909 54.6596758,147.887984 C57.1813164,146.643833 60.2387773,147.686291 61.4871367,150.21425 C62.7332305,152.745608 61.6955742,155.803861 59.1728008,157.048011 C58.4138164,157.421936 57.6083867,157.586236 56.8165508,157.568106 C57.8258867,160.029212 56.779168,162.88124 54.3628789,164.072134 C51.8401055,165.316284 48.7826445,164.273827 47.535418,161.744734 C46.6676836,159.982755 46.9112383,157.964694 47.988543,156.481458" id="Fill-167" fill="#f1f1f1"></path>
                    <path d="M47.988543,156.481458 C46.1567852,156.432734 44.4088555,155.39481 43.5388555,153.63283 C42.2938945,151.103738 43.3315508,148.043219 45.8531914,146.799069 C48.3759648,145.554919 51.4334258,146.597376 52.6806523,149.127601 C52.7293633,149.229581 52.7724102,149.332694 52.8143242,149.436939 C53.281043,148.800134 53.902957,148.261909 54.6596758,147.887984 C57.1813164,146.643833 60.2387773,147.686291 61.4871367,150.21425 C62.7332305,152.745608 61.6955742,155.803861 59.1728008,157.048011 C58.4138164,157.421936 57.6083867,157.586236 56.8165508,157.568106 C57.8258867,160.029212 56.779168,162.88124 54.3628789,164.072134 C51.8401055,165.316284 48.7826445,164.273827 47.535418,161.744734 C46.6676836,159.982755 46.9112383,157.964694 47.988543,156.481458 L47.988543,156.481458 Z" id="Stroke-169" stroke="#1D1C1B"></path>
                    <path d="M34.0960703,155.607267 C33.7732188,155.602734 33.4594297,155.627663 33.1467734,155.665055 C32.9768516,151.85782 29.9477109,148.795035 26.1777109,148.736113 C22.2570469,148.673792 19.0285313,151.878216 18.9650938,155.89281 C18.9265781,158.194147 19.9427109,160.258666 21.5513047,161.618393 C19.9404453,162.494284 18.8314219,164.216605 18.7985703,166.21427 C18.752125,169.142216 21.0313438,171.550066 23.8871641,171.594257 C26.2105625,171.632782 28.1997813,170.094025 28.8873984,167.947922 C30.1516172,169.277055 31.9097422,170.116687 33.8661094,170.147281 C37.7867734,170.209601 41.0164219,167.005178 41.0809922,162.990584 C41.1455625,158.97599 38.0167344,155.669588 34.0960703,155.607267" id="Fill-171" fill="#f1f1f1"></path>
                    <path d="M34.0960703,155.607267 C33.7732188,155.602734 33.4594297,155.627663 33.1467734,155.665055 C32.9768516,151.85782 29.9477109,148.795035 26.1777109,148.736113 C22.2570469,148.673792 19.0285313,151.878216 18.9650938,155.89281 C18.9265781,158.194147 19.9427109,160.258666 21.5513047,161.618393 C19.9404453,162.494284 18.8314219,164.216605 18.7985703,166.21427 C18.752125,169.142216 21.0313438,171.550066 23.8871641,171.594257 C26.2105625,171.632782 28.1997813,170.094025 28.8873984,167.947922 C30.1516172,169.277055 31.9097422,170.116687 33.8661094,170.147281 C37.7867734,170.209601 41.0164219,167.005178 41.0809922,162.990584 C41.1455625,158.97599 38.0167344,155.669588 34.0960703,155.607267 L34.0960703,155.607267 Z" id="Stroke-173" stroke="#1D1C1B"></path>
                    <path d="M7.63651562,76.1858416 C6.38589063,72.7559304 5.62917187,69.0801352 5.51815625,65.2151113 C4.988,46.3670294 19.4812031,30.6667154 37.8871406,30.1511522 C42.1408516,30.0321761 46.2110469,30.7641625 49.9946406,32.1499509 C51.0628828,14.7307154 64.9262422,0.723261433 82.2990547,0.239425256 C100.702727,-0.280670307 116.046672,14.5800123 116.574562,33.4337597 C116.79093,41.1944014 114.431281,48.4009543 110.331633,54.2545788 C126.23632,56.4584696 138.718781,70.1531863 139.196828,87.1146471 C139.725852,105.958197 125.241711,121.660777 106.832375,122.17634 C94.0519844,122.534401 82.7510469,115.461555 76.8581562,104.801296 C76.1331562,104.867016 75.4149531,104.954265 74.6774922,104.973528 C72.4050703,105.040381 70.1790937,104.86135 68.0154219,104.47836 C63.5419453,117.351575 51.7403047,126.737091 37.5869453,127.135944 C19.1832734,127.653773 3.83592969,112.788558 3.30577344,93.9438758 C3.12565625,87.4840396 4.73878125,81.4219235 7.63651562,76.1858416" id="Fill-175" fill="#f1f1f1"></path>
                    <path d="M7.63651562,76.1858416 C6.38589063,72.7559304 5.62917187,69.0801352 5.51815625,65.2151113 C4.988,46.3670294 19.4812031,30.6667154 37.8871406,30.1511522 C42.1408516,30.0321761 46.2110469,30.7641625 49.9946406,32.1499509 C51.0628828,14.7307154 64.9262422,0.723261433 82.2990547,0.239425256 C100.702727,-0.280670307 116.046672,14.5800123 116.574562,33.4337597 C116.79093,41.1944014 114.431281,48.4009543 110.331633,54.2545788 C126.23632,56.4584696 138.718781,70.1531863 139.196828,87.1146471 C139.725852,105.958197 125.241711,121.660777 106.832375,122.17634 C94.0519844,122.534401 82.7510469,115.461555 76.8581562,104.801296 C76.1331562,104.867016 75.4149531,104.954265 74.6774922,104.973528 C72.4050703,105.040381 70.1790937,104.86135 68.0154219,104.47836 C63.5419453,117.351575 51.7403047,126.737091 37.5869453,127.135944 C19.1832734,127.653773 3.83592969,112.788558 3.30577344,93.9438758 C3.12565625,87.4840396 4.73878125,81.4219235 7.63651562,76.1858416 L7.63651562,76.1858416 Z" id="Stroke-177" stroke="#1D1C1B"></path>
                    <path d="M29.1323125,47.1411672 C31.8578594,47.1411672 34.3908281,47.9184778 36.5578984,49.237413 C37.1107109,47.524157 37.8889531,45.8528259 38.9277422,44.2800751 C45.2261797,34.7563208 58.2365313,32.2623549 67.9877813,38.7119932 C72.0002031,41.3691263 74.8152422,45.1344369 76.3264141,49.3076655 C83.1108281,42.0183959 94.5057891,40.5612218 103.281688,46.3661229 C113.031805,52.8157611 115.829852,65.7648942 109.53368,75.2920478 C105.156492,81.9071195 97.5439922,85.1228737 90.0345781,84.3127031 C89.8091484,84.7036246 89.5950469,85.0979454 89.3435625,85.4809352 C88.5630547,86.6582321 87.6817266,87.7244846 86.7177031,88.6830922 C91.6533672,95.546314 92.2073125,104.88084 87.3645391,112.204102 C81.0649688,121.72899 68.0546172,124.225222 58.3067656,117.772184 C54.9638359,115.563761 52.4659844,112.580294 50.8426641,109.245563 C48.6574688,108.656348 46.5187188,107.727201 44.5204375,106.408266 C34.7714531,99.958628 31.9768047,87.0083618 38.2718438,77.4823413 C39.7275078,75.2807167 41.5524688,73.4745461 43.6028594,72.0468328 C42.6399688,71.2797201 41.7677031,70.4344232 40.9713359,69.5404027 C38.3964531,73.3306416 34.0577813,75.8246075 29.1323125,75.8246075 C21.2332109,75.8246075 14.8237578,69.40443 14.8237578,61.4840205 C14.8237578,53.5613447 21.2332109,47.1411672 29.1323125,47.1411672" id="Fill-179" fill="#f1f1f1"></path>
                    <path d="M29.1323125,47.1411672 C31.8578594,47.1411672 34.3908281,47.9184778 36.5578984,49.237413 C37.1107109,47.524157 37.8889531,45.8528259 38.9277422,44.2800751 C45.2261797,34.7563208 58.2365313,32.2623549 67.9877813,38.7119932 C72.0002031,41.3691263 74.8152422,45.1344369 76.3264141,49.3076655 C83.1108281,42.0183959 94.5057891,40.5612218 103.281688,46.3661229 C113.031805,52.8157611 115.829852,65.7648942 109.53368,75.2920478 C105.156492,81.9071195 97.5439922,85.1228737 90.0345781,84.3127031 C89.8091484,84.7036246 89.5950469,85.0979454 89.3435625,85.4809352 C88.5630547,86.6582321 87.6817266,87.7244846 86.7177031,88.6830922 C91.6533672,95.546314 92.2073125,104.88084 87.3645391,112.204102 C81.0649688,121.72899 68.0546172,124.225222 58.3067656,117.772184 C54.9638359,115.563761 52.4659844,112.580294 50.8426641,109.245563 C48.6574688,108.656348 46.5187188,107.727201 44.5204375,106.408266 C34.7714531,99.958628 31.9768047,87.0083618 38.2718438,77.4823413 C39.7275078,75.2807167 41.5524688,73.4745461 43.6028594,72.0468328 C42.6399688,71.2797201 41.7677031,70.4344232 40.9713359,69.5404027 C38.3964531,73.3306416 34.0577813,75.8246075 29.1323125,75.8246075 C21.2332109,75.8246075 14.8237578,69.40443 14.8237578,61.4840205 C14.8237578,53.5613447 21.2332109,47.1411672 29.1323125,47.1411672 L29.1323125,47.1411672 Z" id="Stroke-181" stroke="#1D1C1B"></path>
                    <path d="M51.8570977,89.2476055 C51.8570977,82.4931618 57.5358867,77.0179945 64.5411992,77.0179945 C70.088582,77.0179945 74.7886211,80.4569706 76.5093633,85.2420765 C77.7928398,84.819428 79.1658086,84.5780765 80.595418,84.5780765 C87.6018633,84.5780765 93.2761211,90.0577761 93.2761211,96.8099536 C93.2761211,103.564397 87.6018633,109.044097 80.595418,109.044097 C79.3176055,109.044097 78.0885039,108.858268 76.9239727,108.519469 C74.6085039,111.458745 70.9540508,113.365762 66.8306133,113.365762 C59.8286992,113.365762 54.1555742,107.890595 54.1555742,101.133885 C54.1555742,99.7333666 54.4081914,98.3917693 54.8567852,97.1396874 C52.9876445,95.0083154 51.8570977,92.2594007 51.8570977,89.2476055" id="Fill-183" fill="#f1f1f1"></path>
                    <path d="M51.8570977,89.2476055 C51.8570977,82.4931618 57.5358867,77.0179945 64.5411992,77.0179945 C70.088582,77.0179945 74.7886211,80.4569706 76.5093633,85.2420765 C77.7928398,84.819428 79.1658086,84.5780765 80.595418,84.5780765 C87.6018633,84.5780765 93.2761211,90.0577761 93.2761211,96.8099536 C93.2761211,103.564397 87.6018633,109.044097 80.595418,109.044097 C79.3176055,109.044097 78.0885039,108.858268 76.9239727,108.519469 C74.6085039,111.458745 70.9540508,113.365762 66.8306133,113.365762 C59.8286992,113.365762 54.1555742,107.890595 54.1555742,101.133885 C54.1555742,99.7333666 54.4081914,98.3917693 54.8567852,97.1396874 C52.9876445,95.0083154 51.8570977,92.2594007 51.8570977,89.2476055 L51.8570977,89.2476055 Z" id="Stroke-185" stroke="#1D1C1B"></path>
                    <path d="M116.226109,91.0202362 C116.682633,91.4428846 117.087047,91.9006594 117.473336,92.3697652 C122.795289,87.291185 131.113531,87.0747618 136.446813,92.0320997 C141.993063,97.1899973 142.212828,105.973833 136.935055,111.655226 C133.905914,114.912905 129.734898,116.431267 125.678297,116.174052 C126.748805,119.549574 125.992086,123.432728 123.363961,126.262093 C119.520328,130.400195 113.125602,130.711799 109.081461,126.95442 C105.79857,123.9007 105.079234,119.095199 106.99482,115.182584 C103.453648,115.349151 99.8807578,114.167322 97.1121641,111.592905 C91.5636484,106.438407 91.3461484,97.6511713 96.6216563,91.9697788 C101.901695,86.2883863 110.677594,85.8612055 116.226109,91.0202362" id="Fill-187" fill="#f1f1f1"></path>
                    <path d="M116.226109,91.0202362 C116.682633,91.4428846 117.087047,91.9006594 117.473336,92.3697652 C122.795289,87.291185 131.113531,87.0747618 136.446813,92.0320997 C141.993063,97.1899973 142.212828,105.973833 136.935055,111.655226 C133.905914,114.912905 129.734898,116.431267 125.678297,116.174052 C126.748805,119.549574 125.992086,123.432728 123.363961,126.262093 C119.520328,130.400195 113.125602,130.711799 109.081461,126.95442 C105.79857,123.9007 105.079234,119.095199 106.99482,115.182584 C103.453648,115.349151 99.8807578,114.167322 97.1121641,111.592905 C91.5636484,106.438407 91.3461484,97.6511713 96.6216563,91.9697788 C101.901695,86.2883863 110.677594,85.8612055 116.226109,91.0202362 L116.226109,91.0202362 Z" id="Stroke-189" stroke="#1D1C1B"></path>
                    <path d="M6.93847656,105.206268 C3.11976562,103.197271 0.509765625,99.1883427 0.509765625,94.565271 C0.509765625,87.9309365 5.88042969,82.5509502 12.4960547,82.5509502 C19.1173437,82.5509502 24.4834766,87.9309365 24.4834766,94.565271 C24.4834766,94.8338171 24.4619531,95.0966976 24.4438281,95.3607113 C26.0966016,94.5018171 27.9646094,94.0077829 29.9481641,94.0077829 C36.5705859,94.0077829 41.9378516,99.3877693 41.9378516,106.023237 C41.9378516,112.657571 36.5705859,118.035291 29.9481641,118.035291 C27.9623438,118.035291 26.0909375,117.54239 24.4415625,116.683496 C24.0031641,122.926909 18.8352734,127.857053 12.4960547,127.857053 C5.88042969,127.857053 0.509765625,122.479332 0.509765625,115.844998 C0.509765625,111.221926 3.11976562,107.211865 6.93847656,105.206268" id="Fill-191" fill="#f1f1f1"></path>
                    <path d="M6.93847656,105.206268 C3.11976562,103.197271 0.509765625,99.1883427 0.509765625,94.565271 C0.509765625,87.9309365 5.88042969,82.5509502 12.4960547,82.5509502 C19.1173437,82.5509502 24.4834766,87.9309365 24.4834766,94.565271 C24.4834766,94.8338171 24.4619531,95.0966976 24.4438281,95.3607113 C26.0966016,94.5018171 27.9646094,94.0077829 29.9481641,94.0077829 C36.5705859,94.0077829 41.9378516,99.3877693 41.9378516,106.023237 C41.9378516,112.657571 36.5705859,118.035291 29.9481641,118.035291 C27.9623438,118.035291 26.0909375,117.54239 24.4415625,116.683496 C24.0031641,122.926909 18.8352734,127.857053 12.4960547,127.857053 C5.88042969,127.857053 0.509765625,122.479332 0.509765625,115.844998 C0.509765625,111.221926 3.11976562,107.211865 6.93847656,105.206268 L6.93847656,105.206268 Z" id="Stroke-193" stroke="#1D1C1B"></path>
                    <path d="M84.0094883,82.9558089 C80.8172227,82.871959 77.7676914,81.0657884 76.2565195,77.9916724 C74.0837852,73.5838908 75.8894883,68.2537611 80.2870664,66.0849966 C84.6869102,63.9162321 90.0145273,65.7337338 92.1872617,70.1415154 C92.2733555,70.319413 92.3458555,70.5029761 92.4183555,70.6797406 C93.2339805,69.57043 94.3169492,68.6322184 95.6344102,67.9795495 C100.033121,65.8130512 105.358473,67.6282867 107.531207,72.033802 C109.702809,76.4449829 107.895973,81.7785119 103.499527,83.942744 C102.177535,84.5976792 100.775113,84.8809556 99.3964805,84.8503618 C101.151207,89.1391672 99.3262461,94.1101024 95.1167148,96.1859522 C90.7202695,98.3524505 85.394918,96.537215 83.219918,92.1294334 C81.7087461,89.0575836 82.1301523,85.5404232 84.0094883,82.9558089" id="Fill-195" fill="#f1f1f1"></path>
                    <path d="M84.0094883,82.9558089 C80.8172227,82.871959 77.7676914,81.0657884 76.2565195,77.9916724 C74.0837852,73.5838908 75.8894883,68.2537611 80.2870664,66.0849966 C84.6869102,63.9162321 90.0145273,65.7337338 92.1872617,70.1415154 C92.2733555,70.319413 92.3458555,70.5029761 92.4183555,70.6797406 C93.2339805,69.57043 94.3169492,68.6322184 95.6344102,67.9795495 C100.033121,65.8130512 105.358473,67.6282867 107.531207,72.033802 C109.702809,76.4449829 107.895973,81.7785119 103.499527,83.942744 C102.177535,84.5976792 100.775113,84.8809556 99.3964805,84.8503618 C101.151207,89.1391672 99.3262461,94.1101024 95.1167148,96.1859522 C90.7202695,98.3524505 85.394918,96.537215 83.219918,92.1294334 C81.7087461,89.0575836 82.1301523,85.5404232 84.0094883,82.9558089 L84.0094883,82.9558089 Z" id="Stroke-197" stroke="#1D1C1B"></path>
                    <path d="M64.1376914,141.408091 C64.0357383,138.034835 64.0266758,135.390167 64.3087461,131.150085 C54.8463633,127.896938 49.3544883,101.6916 49.3544883,101.6916 C56.4878086,117.008924 62.200582,124.860214 65.154957,125.681716 C65.4891367,122.382112 65.9082773,114.563682 66.0883945,111.281074 C66.2492539,108.36446 66.4373008,105.62461 66.8201914,103.349334 C67.4217148,99.7664532 65.6103477,83.6638867 67.2076133,82.1523235 C67.2076133,82.1523235 70.1835117,105.706194 71.4307383,103.090986 C75.3389414,94.9088287 77.4652305,93.6624123 82.1040977,86.7312041 C82.681832,85.8655113 71.4182773,109.711723 71.534957,111.060119 C72.0073398,116.435573 72.6122617,124.227941 73.3689805,135.517074 C76.8897617,133.553402 82.2615586,129.733702 85.2306602,127.191013 C83.183668,120.224678 89.750582,106.546958 89.750582,106.546958 C89.5580039,113.923477 86.7282383,123.731641 88.0558945,124.643791 C90.9502305,121.211614 105.424176,110.387054 108.841871,105.931682 C108.841871,105.931682 88.6019102,132.508678 73.9025352,142.778016 C74.5867539,151.402085 74.8540977,165.614631 75.2075352,168.370344 C75.9506602,174.131054 77.0914023,180.783518 78.259332,185.820173 L61.107418,185.820173 C61.3951523,183.328474 62.0227305,180.945552 62.0805039,178.273689 C62.1915195,172.967354 62.3421836,154.271109 62.9573008,150.547723 C41.5890586,139.916924 23.6453086,114.315532 23.6453086,114.315532 C38.9983164,129.340515 57.7554258,140.908392 64.1376914,141.408091" id="Fill-199" fill="#f1f1f1"></path>
                    <path d="M64.1376914,141.408091 C64.0357383,138.034835 64.0266758,135.390167 64.3087461,131.150085 C54.8463633,127.896938 49.3544883,101.6916 49.3544883,101.6916 C56.4878086,117.008924 62.200582,124.860214 65.154957,125.681716 C65.4891367,122.382112 65.9082773,114.563682 66.0883945,111.281074 C66.2492539,108.36446 66.4373008,105.62461 66.8201914,103.349334 C67.4217148,99.7664532 65.6103477,83.6638867 67.2076133,82.1523235 C67.2076133,82.1523235 70.1835117,105.706194 71.4307383,103.090986 C75.3389414,94.9088287 77.4652305,93.6624123 82.1040977,86.7312041 C82.681832,85.8655113 71.4182773,109.711723 71.534957,111.060119 C72.0073398,116.435573 72.6122617,124.227941 73.3689805,135.517074 C76.8897617,133.553402 82.2615586,129.733702 85.2306602,127.191013 C83.183668,120.224678 89.750582,106.546958 89.750582,106.546958 C89.5580039,113.923477 86.7282383,123.731641 88.0558945,124.643791 C90.9502305,121.211614 105.424176,110.387054 108.841871,105.931682 C108.841871,105.931682 88.6019102,132.508678 73.9025352,142.778016 C74.5867539,151.402085 74.8540977,165.614631 75.2075352,168.370344 C75.9506602,174.131054 77.0914023,180.783518 78.259332,185.820173 L61.107418,185.820173 C61.3951523,183.328474 62.0227305,180.945552 62.0805039,178.273689 C62.1915195,172.967354 62.3421836,154.271109 62.9573008,150.547723 C41.5890586,139.916924 23.6453086,114.315532 23.6453086,114.315532 C38.9983164,129.340515 57.7554258,140.908392 64.1376914,141.408091 L64.1376914,141.408091 Z" id="Stroke-201" stroke="#1D1C1B"></path>
                </g>
            </g>
        </g>
    </g>
</svg>