<?xml version="1.0" encoding="UTF-8" standalone="no"?>
<svg width="150px" height="158px" viewBox="0 0 150 158" version="1.1" xmlns="http://www.w3.org/2000/svg" xmlns:xlink="http://www.w3.org/1999/xlink">
    <!-- Generator: Sketch 3.7.2 (28276) - http://www.bohemiancoding.com/sketch -->
    <title>icon rich</title>
    <desc>Created with Sketch.</desc>
    <defs>
        <linearGradient x1="84.4190477%" y1="30.8516415%" x2="53.8914298%" y2="1.75681029%" id="linearGradient-1">
            <stop stop-color="#000000" stop-opacity="0" offset="0%"></stop>
            <stop stop-color="#000000" offset="100%"></stop>
        </linearGradient>
        <linearGradient x1="87.0652227%" y1="33.69215%" x2="53.8914298%" y2="1.75681029%" id="linearGradient-2">
            <stop stop-color="#000000" stop-opacity="0" offset="0%"></stop>
            <stop stop-color="#000000" offset="100%"></stop>
        </linearGradient>
    </defs>
    <g id="Page-1" stroke="none" stroke-width="1" fill="none" fill-rule="evenodd">
        <g id="Exports" transform="translate(-654.000000, -142.000000)">
            <g id="icon-rich" transform="translate(654.000000, 142.000000)">
                <path d="M105.578815,143.553799 L74.8957037,174.755022 L8.42066667,107.153439 L39.1025185,75.9522158 L105.578815,143.553799 Z M90.7598519,15.7766906 C95.5135556,20.6108633 98.4539259,27.2890647 98.4539259,34.6651799 C98.4539259,49.4186906 86.6924444,61.3779856 72.1845185,61.3779856 C64.9311852,61.3779856 58.3641481,58.3891223 53.6104444,53.5549496 L48.5381481,58.7118273 L119.008815,130.374115 L166.043407,82.5433381 L95.574,10.8797698 L90.7598519,15.7766906 Z" id="shadow" fill-opacity="0.0299999975" fill="url(#linearGradient-1)"></path>
                <path d="M90.9588148,15.9995108 C95.5903704,20.8157554 98.4539259,27.3979137 98.4539259,34.6651799 C98.4539259,49.4186906 86.6924444,61.3779856 72.1845185,61.3779856 C65.8151852,61.3779856 59.9785185,59.0716691 55.4300741,55.2363453 L8.42066667,107.153439 L78.0866667,178 L169.255778,85.2876115 L95.8308889,10.6185324 L90.9588148,15.9995108 Z" id="shadow" fill-opacity="0.15" fill="url(#linearGradient-2)"></path>
                <polygon id="gray" fill="#D9D9D9" points="21.7042148 78.5444849 47.7494741 52.058341 55.0808815 59.5138518 29.0356222 85.9999957"></polygon>
                <path d="M46.6124889,34.665564 C46.6124889,20.3269597 58.0843407,8.66091655 72.1842667,8.66091655 C86.2867111,8.66091655 97.7573037,20.3269597 97.7573037,34.665564 C97.7573037,49.0041683 86.2867111,60.6714921 72.1842667,60.6714921 C58.0843407,60.6714921 46.6124889,49.0041683 46.6124889,34.665564 M105.625156,34.665564 C105.625156,15.8846432 90.6538222,0.6586 72.1842667,0.6586 C53.7159704,0.6586 38.744637,15.8846432 38.744637,34.665564 C38.744637,53.4464849 53.7159704,68.6725281 72.1842667,68.6725281 C90.6538222,68.6725281 105.625156,53.4464849 105.625156,34.665564 M8.42041481,107.154079 L0.902637037,99.5090432 C-0.301214815,98.2848129 -0.301214815,96.2999209 0.902637037,95.0756906 L27.2261926,68.3078201 C28.4300444,67.0835899 30.3818963,67.0835899 31.5857481,68.3078201 L39.1035259,75.9515755 C40.3073778,77.1758058 40.3073778,79.1606978 39.1035259,80.3849281 L12.7799704,107.154079 C11.5761185,108.378309 9.62426667,108.378309 8.42041481,107.154079" id="white" fill="#FEFEFE"></path>
                <path d="M72.2681481,61.4256115 C57.7602222,61.4256115 46,49.4663165 46,34.7128058 C46,19.959295 57.7602222,8 72.2681481,8 C86.7760741,8 98.5362963,19.959295 98.5362963,34.7128058 C98.5362963,49.4663165 86.7760741,61.4256115 72.2681481,61.4256115" id="glass" fill="#FEFEFE" opacity="0.148029384"></path>
            </g>
        </g>
    </g>
</svg>